<svg width="153" height="64" viewBox="0 0 153 64" fill="none" xmlns="http://www.w3.org/2000/svg">
<g clip-path="url(#clip0_4454_361)">
<path fill-rule="evenodd" clip-rule="evenodd" d="M45.1829 38.0296H37.8511C37.747 38.0296 37.717 38.1111 37.717 38.1693V56.9067C37.717 56.9351 37.717 57.0375 37.848 57.0375H45.1829C51.8343 57.0375 54.7664 52.1838 54.6849 47.371C54.6033 42.6665 51.6986 38.0296 45.1829 38.0296ZM41.3085 41.4192H45.1829C49.3097 41.4192 51.0471 44.3791 51.1286 47.3437C51.2101 50.4438 49.4995 53.5939 45.1829 53.5939H41.298C41.2801 53.5939 41.2733 53.5949 41.2733 53.5687V41.4533C41.2733 41.4286 41.2843 41.4192 41.3085 41.4192Z" fill="#692746"/>
<path fill-rule="evenodd" clip-rule="evenodd" d="M102.545 56.9164C102.545 56.9826 102.6 57.0366 102.666 57.0366H105.753C105.819 57.0366 105.873 56.9826 105.873 56.9164V48.9862C105.91 48.8197 105.961 48.6584 106.025 48.504C106.171 48.1553 106.385 47.8402 106.649 47.5755C106.914 47.3114 107.229 47.0981 107.578 46.9527C107.914 46.813 108.282 46.7352 108.667 46.7352C109.052 46.7352 109.42 46.8124 109.756 46.9527C110.105 47.0981 110.421 47.3114 110.685 47.5755C111.567 48.4557 111.467 49.1075 111.467 50.2135V56.4621H111.509V56.9195C111.509 56.9841 111.561 57.0366 111.626 57.0366H114.624C114.689 57.0366 114.742 56.9841 114.742 56.9195C114.742 52.6708 114.742 55.5005 114.742 51.2523C114.742 51.2418 114.74 51.2318 114.738 51.2224V50.2576C114.738 49.1364 114.626 48.4678 115.519 47.5761C115.784 47.3119 116.099 47.0987 116.449 46.9532C116.785 46.8135 117.153 46.7358 117.538 46.7358C117.923 46.7358 118.29 46.813 118.627 46.9532C118.976 47.0987 119.291 47.3119 119.556 47.5761C119.82 47.8402 120.034 48.1553 120.179 48.5046C120.319 48.8402 120.397 49.2078 120.397 49.5922V52.5064C120.393 54.7038 120.381 53.2774 120.381 56.9206C120.381 56.9852 120.434 57.0377 120.499 57.0377H123.498C123.562 57.0377 123.615 56.9852 123.615 56.9206C123.615 52.6719 123.615 55.5015 123.615 51.2534C123.615 51.2402 123.613 51.2276 123.608 51.2161V49.5922C123.608 48.774 123.444 47.9925 123.147 47.2788C122.839 46.5372 122.387 45.8687 121.826 45.3094C121.266 44.7501 120.597 44.2984 119.854 43.9901C119.14 43.6934 118.357 43.5295 117.538 43.5295C116.719 43.5295 115.936 43.6934 115.222 43.9901C114.479 44.2984 113.81 44.7501 113.25 45.3094C113.221 45.3383 113.193 45.3677 113.164 45.3971C113.143 45.4186 113.123 45.4401 113.103 45.4606C113.083 45.4396 113.063 45.4181 113.042 45.3966C113.014 45.3666 112.985 45.3377 112.957 45.3094C112.397 44.7495 111.727 44.2984 110.985 43.9901C110.27 43.6934 109.488 43.5295 108.668 43.5295C108.1 43.5295 107.55 43.6083 107.028 43.7554C106.436 43.9218 106.296 44.0584 105.792 44.3205L105.711 43.7942C105.711 43.7281 105.656 43.674 105.591 43.674H102.683C102.617 43.674 102.563 43.7281 102.563 43.7942C102.563 48.1685 102.545 52.5427 102.545 56.9174V56.9164Z" fill="#692746"/>
<path fill-rule="evenodd" clip-rule="evenodd" d="M64.3762 57.4751C63.1294 60.4282 61.6092 63.4968 57.6533 63.9989C57.5377 64.0136 57.4998 63.9101 57.4966 63.8797L57.1801 60.9056C57.1754 60.8635 57.1832 60.7695 57.2926 60.7533C59.1399 60.4828 60.1832 58.8243 61.0108 57.0098L55.7403 43.8509C55.7072 43.728 55.7898 43.6692 55.8744 43.6692H59.4196C59.4812 43.6692 59.5269 43.6907 59.5553 43.7605L61.5593 49.4451L62.7466 52.9528L64.3436 49.2298L66.6016 43.7233C66.6363 43.6576 66.6752 43.6376 66.7315 43.6376H70.101C70.192 43.6376 70.2583 43.7238 70.2251 43.8178L64.3767 57.4751H64.3762Z" fill="#692746"/>
<path fill-rule="evenodd" clip-rule="evenodd" d="M37.6698 33.4455C44.6193 29.8244 61.0203 20.2084 61.0203 12.8417C61.0203 8.67543 56.5843 5.78852 49.8562 3.81962C49.8257 3.81174 49.8073 3.83537 49.8325 3.85008C61.4483 8.44803 59.8335 15.8137 51.8044 23.2381C54.1775 20.5167 55.5989 17.634 55.7398 14.5995C56.0858 7.13456 47.6655 3.34223 37.9064 1.4894C37.8933 1.48625 37.8844 1.50253 37.9012 1.50725C46.1632 3.6127 52.8798 7.70963 52.5842 14.8305C52.2892 21.9446 46.2252 28.0661 37.6562 33.4193C37.6409 33.4277 37.6477 33.4513 37.6698 33.4455ZM0.0327975 48.2304C0.00072127 48.2388 -0.0150539 48.2078 0.018074 48.1989C15.0944 40.6295 31.7494 29.7955 32.1985 16.5558C32.6286 3.89577 17.9408 0.717907 11.5093 0.111324C11.4383 0.111324 11.4341 0.00681357 11.5245 0.00681357C21.4455 -0.0714382 49.9061 0.284633 49.3125 15.0196C48.7009 30.1947 18.0292 43.8656 0.0327975 48.2304Z" fill="#692746"/>
<path fill-rule="evenodd" clip-rule="evenodd" d="M152.292 43.6688H148.698C148.653 43.6688 148.591 43.7055 148.559 43.7497L145.66 47.7563L142.762 43.7497C142.73 43.705 142.667 43.6688 142.623 43.6688H139.028C138.984 43.6688 138.974 43.705 139.006 43.7497L143.783 50.3527L139.006 56.9558C138.974 57.0005 138.984 57.0367 139.028 57.0367H142.623C142.667 57.0367 142.73 57.0005 142.762 56.9558L145.66 52.9492L148.559 56.9558C148.591 57.0005 148.654 57.0367 148.698 57.0367H152.292C152.337 57.0367 152.347 56.9999 152.315 56.9558L147.538 50.3527L152.315 43.7497C152.347 43.705 152.337 43.6688 152.292 43.6688Z" fill="#692746"/>
<path fill-rule="evenodd" clip-rule="evenodd" d="M97.2019 44.6109L97.2835 43.7942C97.2898 43.7286 97.3376 43.674 97.4039 43.674H100.23C100.296 43.674 100.35 43.7281 100.35 43.7942C100.35 48.1685 100.35 52.5432 100.35 56.9174C100.35 56.9836 100.296 57.0377 100.23 57.0377H97.4039C97.3376 57.0377 97.2898 56.9831 97.2835 56.9174L97.2019 56.0614C96.0614 56.8497 94.5964 57.3933 93.1046 57.3933C91.1537 57.3933 89.3874 56.6034 88.1086 55.3261C86.8297 54.0489 86.0389 52.2848 86.0389 50.3364C86.0389 48.388 86.8297 46.6239 88.1086 45.3467C89.3874 44.0694 91.1537 43.2796 93.1046 43.2796C94.5964 43.2796 96.0614 43.8226 97.2019 44.6109ZM95.8842 47.5603C95.1727 46.8497 94.1905 46.4107 93.1046 46.4107C92.0187 46.4107 91.0365 46.8503 90.325 47.5603C89.6135 48.2709 89.1739 49.2519 89.1739 50.3364C89.1739 51.4209 89.6141 52.4019 90.325 53.1125C91.0365 53.8231 92.0187 54.2621 93.1046 54.2621C94.1905 54.2621 95.1727 53.8226 95.8842 53.1125C96.5956 52.4019 97.0353 51.4209 97.0353 50.3364C97.0353 49.2519 96.5956 48.2709 95.8842 47.5603Z" fill="#692746"/>
<path fill-rule="evenodd" clip-rule="evenodd" d="M132.197 43.2796C134.155 43.2796 135.927 44.0721 137.21 45.3535C138.493 46.6349 139.287 48.4053 139.287 50.36C139.287 52.3148 138.493 54.0851 137.21 55.3666C135.927 56.648 134.155 57.4405 132.197 57.4405C130.24 57.4405 128.468 56.648 127.185 55.3666C125.902 54.0851 125.108 52.3148 125.108 50.36C125.108 48.4053 125.902 46.6349 127.185 45.3535C128.468 44.0721 130.24 43.2796 132.197 43.2796ZM134.986 47.575C134.273 46.8623 133.287 46.4212 132.197 46.4212C131.108 46.4212 130.122 46.8618 129.408 47.575C128.695 48.2877 128.253 49.2724 128.253 50.3606C128.253 51.4487 128.694 52.4335 129.408 53.1461C130.122 53.8588 131.108 54.2999 132.197 54.2999C133.287 54.2999 134.273 53.8588 134.986 53.1461C135.7 52.4335 136.142 51.4487 136.142 50.3606C136.142 49.2724 135.701 48.2877 134.986 47.575Z" fill="#692746"/>
<path fill-rule="evenodd" clip-rule="evenodd" d="M78.0361 43.4522C79.8487 43.4522 81.4951 44.1917 82.6877 45.3828C83.8803 46.5739 84.6207 48.2182 84.6207 50.0285V55.6957V56.921C84.6207 56.9845 84.5687 57.0365 84.505 57.0365H81.5603C81.4967 57.0365 81.4446 56.9845 81.4446 56.921V50.0285C81.4446 49.0942 81.0608 48.2434 80.4419 47.6253C79.8235 47.0077 78.9716 46.6238 78.0356 46.6238C77.0996 46.6238 76.2478 46.9552 75.6294 47.5728C75.0651 48.1363 74.6529 48.9372 74.5845 49.7827V55.6385V56.9163C74.5845 56.9824 74.5304 57.0365 74.4641 57.0365H71.3937C71.3275 57.0365 71.2733 56.9824 71.2733 56.9163V43.7931C71.2733 43.7269 71.3275 43.6728 71.3937 43.6728H74.3011C74.3674 43.6728 74.4215 43.7269 74.4215 43.7931L74.503 44.5136C75.5079 43.8923 76.772 43.4517 78.0356 43.4517L78.0361 43.4522Z" fill="#692746"/>
</g>
<defs>
<clipPath id="clip0_4454_361">
<rect width="152.333" height="64" fill="white"/>
</clipPath>
</defs>
</svg>
